<svg width="535" height="444" viewBox="0 0 535 444" fill="none" xmlns="http://www.w3.org/2000/svg">
<rect x="0.1" y="0.1" width="472.8" height="425.8" stroke="black" stroke-width="0.2"/>
<rect width="529" height="335" fill="#D9D9D9"/>
<path d="M87 400H17V386H57V319H55L23 351L13 340.8L51.8 302H73V386H87V400Z" fill="#B6B2B2"/>
<path d="M235 400H165V379L219 339.4V316H181V330H165V316C165 312.133 166.333 308.867 169 306.2C171.8 303.4 175.133 302 179 302H221C224.867 302 228.133 303.4 230.8 306.2C233.6 308.867 235 312.133 235 316V345L182 384V386H235V400Z" fill="#B6B2B2"/>
<path d="M380 386C380 389.867 378.6 393.2 375.8 396C373.133 398.667 369.867 400 366 400H324C320.133 400 316.8 398.667 314 396C311.333 393.2 310 389.867 310 386V372H326V386H364V358H338V346.4L366 318V316H310V302H380V322.2L358.2 344V346C358.2 345.867 358.933 345.8 360.4 345.8C361.067 345.8 361.867 345.8 362.8 345.8C363.733 345.8 364.8 345.867 366 346C369.867 346.133 373.133 347.6 375.8 350.4C378.6 353.067 380 356.267 380 360V386Z" fill="#B6B2B2"/>
<path d="M520 302L462 359.2V372H502V338L518 322V400H502V386H448V358.8C448 357.2 448 355.933 448 355C448.133 354.067 448.333 353.267 448.6 352.6C448.867 351.8 449.267 351.133 449.8 350.6C450.333 349.933 451 349.133 451.8 348.2L497.6 302H520Z" fill="#B6B2B2"/>
<rect x="473.5" y="287.5" width="55" height="138" fill="#D9D9D9" stroke="black"/>
<rect x="214.5" y="287.5" width="89" height="138" fill="#D9D9D9" stroke="black"/>
<rect x="353.5" y="287.5" width="89" height="138" fill="#D9D9D9" stroke="black"/>
<rect x="67.5" y="287.5" width="89" height="138" fill="#D9D9D9" stroke="black"/>
</svg>
