<svg width="535" height="476" viewBox="0 0 535 476" fill="none" xmlns="http://www.w3.org/2000/svg">
<rect x="0.1" y="0.1" width="528.8" height="475.8" stroke="black" stroke-width="0.2"/>
<path d="M87 282H17V268H57V201H55L23 233L13 222.8L51.8 184H73V268H87V282Z" fill="#B6B2B2"/>
<path d="M235 282H165V261L219 221.4V198H181V212H165V198C165 194.133 166.333 190.867 169 188.2C171.8 185.4 175.133 184 179 184H221C224.867 184 228.133 185.4 230.8 188.2C233.6 190.867 235 194.133 235 198V227L182 266V268H235V282Z" fill="#B6B2B2"/>
<path d="M380 268C380 271.867 378.6 275.2 375.8 278C373.133 280.667 369.867 282 366 282H324C320.133 282 316.8 280.667 314 278C311.333 275.2 310 271.867 310 268V254H326V268H364V240H338V228.4L366 200V198H310V184H380V204.2L358.2 226V228C358.2 227.867 358.933 227.8 360.4 227.8C361.067 227.8 361.867 227.8 362.8 227.8C363.733 227.8 364.8 227.867 366 228C369.867 228.133 373.133 229.6 375.8 232.4C378.6 235.067 380 238.267 380 242V268Z" fill="#B6B2B2"/>
<path d="M520 184L462 241.2V254H502V220L518 204V282H502V268H448V240.8C448 239.2 448 237.933 448 237C448.133 236.067 448.333 235.267 448.6 234.6C448.867 233.8 449.267 233.133 449.8 232.6C450.333 231.933 451 231.133 451.8 230.2L497.6 184H520Z" fill="#B6B2B2"/>
<rect x="473.5" y="169.5" width="55" height="138" fill="#D9D9D9" stroke="black"/>
<rect x="214.5" y="169.5" width="89" height="138" fill="#D9D9D9" stroke="black"/>
<rect x="353.5" y="169.5" width="89" height="138" fill="#D9D9D9" stroke="black"/>
<rect x="67.5" y="169.5" width="89" height="138" fill="#D9D9D9" stroke="black"/>
</svg>
