<svg width="20" height="21" viewBox="0 0 20 21" fill="none" xmlns="http://www.w3.org/2000/svg">
<path fill-rule="evenodd" clip-rule="evenodd" d="M2.5 14.559V8.21484H17.5V14.6098C17.5 17.2257 15.8535 18.834 13.219 18.834H6.77278C4.16301 18.834 2.5 17.1923 2.5 14.559ZM6.63249 12.5094C6.25379 12.5269 5.94094 12.2261 5.92448 11.8436C5.92448 11.4603 6.22086 11.1436 6.59956 11.1261C6.97003 11.1261 7.27464 11.4186 7.28288 11.7928C7.29934 12.1769 7.00296 12.4936 6.63249 12.5094ZM10.0168 12.5094C9.63812 12.5269 9.32528 12.2261 9.30881 11.8436C9.30881 11.4603 9.60519 11.1436 9.98389 11.1261C10.3544 11.1261 10.659 11.4186 10.6672 11.7928C10.6837 12.1769 10.3873 12.4936 10.0168 12.5094ZM13.3754 15.5757C12.9967 15.5673 12.6921 15.2507 12.6921 14.8673C12.6839 14.484 12.9885 14.1682 13.3672 14.1598H13.3754C13.7623 14.1598 14.0752 14.4765 14.0752 14.8673C14.0752 15.259 13.7623 15.5757 13.3754 15.5757ZM9.30881 14.8668C9.32528 15.2502 9.63812 15.551 10.0168 15.5335C10.3873 15.5177 10.6837 15.201 10.6672 14.8177C10.659 14.4427 10.3544 14.1502 9.98389 14.1502C9.60519 14.1677 9.30881 14.4835 9.30881 14.8668ZM5.9158 14.8668C5.93226 15.2502 6.24511 15.551 6.62381 15.5335C6.99428 15.5177 7.29066 15.201 7.2742 14.8177C7.26596 14.4427 6.96135 14.1502 6.59088 14.1502C6.21218 14.1677 5.9158 14.4835 5.9158 14.8668ZM12.7007 11.8348C12.7007 11.4514 12.9971 11.1431 13.3758 11.1348C13.7463 11.1348 14.0427 11.4339 14.0591 11.8014C14.0674 12.1848 13.771 12.5014 13.4005 12.5089C13.0218 12.5173 12.709 12.2256 12.7007 11.8431V11.8348Z" fill="white"/>
<path opacity="0.4" d="M2.50195 8.21599C2.51266 7.72682 2.55382 6.75599 2.63121 6.44349C3.02638 4.68599 4.36831 3.56932 6.28653 3.41016H13.7124C15.6142 3.57766 16.9726 4.70182 17.3678 6.44349C17.4443 6.74766 17.4855 7.72599 17.4962 8.21599H2.50195Z" fill="white"/>
<path d="M6.92103 5.99297C7.28327 5.99297 7.55495 5.7188 7.55495 5.3513V2.81047C7.55495 2.44297 7.28327 2.16797 6.92103 2.16797C6.55879 2.16797 6.28711 2.44297 6.28711 2.81047V5.3513C6.28711 5.7188 6.55879 5.99297 6.92103 5.99297Z" fill="white"/>
<path d="M13.0792 5.99297C13.4332 5.99297 13.7132 5.7188 13.7132 5.3513V2.81047C13.7132 2.44297 13.4332 2.16797 13.0792 2.16797C12.717 2.16797 12.4453 2.44297 12.4453 2.81047V5.3513C12.4453 5.7188 12.717 5.99297 13.0792 5.99297Z" fill="white"/>
</svg>
