<svg width="60" height="60" viewBox="0 0 60 60" fill="none" xmlns="http://www.w3.org/2000/svg">
<circle cx="30" cy="30" r="30" fill="#7ACAD2" fill-opacity="0.5"/>
<ellipse cx="30" cy="30" rx="18.75" ry="18.75" fill="white"/>
<path d="M37.8756 29.9984C37.8761 30.1894 37.8271 30.3772 37.7335 30.5437C37.6398 30.7102 37.5047 30.8495 37.3412 30.9483L27.2106 37.1457C27.0398 37.2503 26.8442 37.3073 26.6439 37.3111C26.4437 37.3148 26.2461 37.2649 26.0715 37.1668C25.8987 37.0701 25.7546 36.9291 25.6543 36.7583C25.5539 36.5875 25.5009 36.3931 25.5006 36.195V23.8018C25.5009 23.6037 25.5539 23.4092 25.6543 23.2385C25.7546 23.0677 25.8987 22.9267 26.0715 22.83C26.2461 22.7318 26.4437 22.682 26.6439 22.6857C26.8442 22.6894 27.0398 22.7465 27.2106 22.8511L37.3412 29.0485C37.5047 29.1472 37.6398 29.2866 37.7335 29.4531C37.8271 29.6196 37.8761 29.8074 37.8756 29.9984Z" fill="#324B4E"/>
</svg>
